<svg id="visual" viewBox="0 0 900 600" width="900" height="600" xmlns="http://www.w3.org/2000/svg" xmlns:xlink="http://www.w3.org/1999/xlink" version="1.1"><rect x="0" y="0" width="900" height="600" fill="#002233"></rect><path d="M359 0L353.2 14.3C347.3 28.7 335.7 57.3 330.7 85.8C325.7 114.3 327.3 142.7 328.8 171.2C330.3 199.7 331.7 228.3 312.2 257C292.7 285.7 252.3 314.3 253.5 343C254.7 371.7 297.3 400.3 287.8 428.8C278.3 457.3 216.7 485.7 178 514.2C139.3 542.7 123.7 571.3 115.8 585.7L108 600L0 600L0 585.7C0 571.3 0 542.7 0 514.2C0 485.7 0 457.3 0 428.8C0 400.3 0 371.7 0 343C0 314.3 0 285.7 0 257C0 228.3 0 199.7 0 171.2C0 142.7 0 114.3 0 85.8C0 57.3 0 28.7 0 14.3L0 0Z" fill="#0066FF" stroke-linecap="round" stroke-linejoin="miter"></path></svg>