<?xml version="1.0" encoding="UTF-8"?> <svg xmlns="http://www.w3.org/2000/svg" width="42" height="42" viewBox="0 0 71 62" fill="none"><path d="M32.9095 6.81239C33.2906 4.04762 34.8206 2.00722 36.6931 0C34.2959 4.83281 36.0303 8.97444 38.654 12.9612C42.6301 13.7963 46.1726 16.0375 48.6324 19.2743C51.0922 22.5111 52.3047 26.5268 52.0477 30.5856C51.7908 34.6445 50.0815 38.4748 47.2332 41.3748C44.3848 44.2748 40.5881 46.0504 36.5385 46.3762C35.7817 46.4415 35.0213 46.4544 34.2627 46.4149C36.2623 44.2639 37.8531 42.0963 38.0961 39.0772C38.7313 31.2861 29.6064 25.1373 27.6786 17.7664C27.0709 15.559 27.2667 13.2072 28.231 11.131C29.0015 9.59587 30.0121 8.19394 31.2248 6.97828C30.586 8.23846 30.2101 9.61563 30.12 11.0259C30.0432 12.9535 30.4496 14.8696 31.3021 16.5997C34.7544 24.0977 44.1334 30.6005 39.7587 39.4311C41.8301 37.2193 43.454 34.9577 43.6252 31.8169C43.9401 25.7953 38.4828 20.7579 35.2073 15.3113C33.6717 12.7677 32.5118 9.87022 32.926 6.81239M34.2793 46.4149C30.8086 46.2467 27.4742 45.011 24.7307 42.8764C21.9871 40.7417 19.968 37.812 18.9485 34.4866C17.929 31.1612 17.9587 27.602 19.0337 24.2941C20.1087 20.9863 22.1766 18.0908 24.9555 16.0025C21.8954 27.1611 40.0404 34.7642 34.2793 46.4149Z" fill="#F37021"></path></svg> 