<?xml version="1.0" encoding="UTF-8"?>
<svg version="1.1" xmlns="http://www.w3.org/2000/svg" width="125" height="125" scale="0.25">
<path d="M0 0 C1.03919334 -0.00021904 1.03919334 -0.00021904 2.09938049 -0.0004425 C4.3935965 0.00025521 6.68773173 0.00804097 8.98193359 0.01586914 C10.57091223 0.01773382 12.15989144 0.01915749 13.74887085 0.02015686 C17.93446434 0.02397808 22.12002323 0.033805 26.30560303 0.04486084 C30.57531262 0.05508345 34.8450278 0.0596563 39.11474609 0.06469727 C47.49497209 0.07542762 55.8751633 0.09302123 64.25537109 0.11352539 C63.26537109 4.40352539 62.27537109 8.69352539 61.25537109 13.11352539 C66.20537109 13.11352539 71.15537109 13.11352539 76.25537109 13.11352539 C76.39974609 11.69040039 76.54412109 10.26727539 76.69287109 8.80102539 C76.97677984 6.00249635 77.35849969 3.80413959 78.25537109 1.11352539 C81.00537109 0.80102539 81.00537109 0.80102539 84.25537109 1.11352539 C86.91008074 3.3000728 88.1058914 5.11960713 88.62081909 8.54345703 C88.76965258 11.63652685 88.78320579 14.70449769 88.75146484 17.80102539 C88.75292007 18.93628662 88.75437531 20.07154785 88.75587463 21.24121094 C88.75421663 23.63845387 88.74266657 26.03570756 88.72192383 28.43286133 C88.69297538 32.10031391 88.70131694 35.76632024 88.71435547 39.43383789 C88.70811772 41.76457408 88.6997265 44.0953057 88.68896484 46.42602539 C88.69190048 47.52197021 88.69483612 48.61791504 88.69786072 49.74707031 C88.68517654 50.7716333 88.67249237 51.79619629 88.65942383 52.85180664 C88.65402084 53.74939697 88.64861786 54.6469873 88.64305115 55.57177734 C88.1569663 58.75869711 87.23455021 60.57080008 85.25537109 63.11352539 C81.40081275 65.32042092 77.91864153 65.3570782 73.53735352 65.34057617 C72.55602448 65.34101425 72.55602448 65.34101425 71.55487061 65.34146118 C69.40672231 65.34007521 67.25892706 65.3245491 65.11083984 65.30883789 C63.6158314 65.30510514 62.12082049 65.30225941 60.62580872 65.30026245 C56.70160095 65.29264657 52.77754254 65.2730158 48.85339355 65.25085449 C44.84482849 65.23035188 40.83623917 65.22125131 36.82763672 65.21118164 C28.9701465 65.18976784 21.11277741 65.15565677 13.25537109 65.11352539 C13.40462421 63.70457072 13.55600736 62.2958416 13.70825195 60.88720703 C13.79231796 60.10269669 13.87638397 59.31818634 13.96299744 58.50990295 C14.41273743 54.8237062 15.10433776 51.19380084 15.81787109 47.55102539 C15.95644531 46.82850586 16.09501953 46.10598633 16.23779297 45.36157227 C16.5738759 43.6116232 16.91416352 41.86248247 17.25537109 40.11352539 C17.91537109 40.11352539 18.57537109 40.11352539 19.25537109 40.11352539 C20.57163801 43.73325941 21.25537109 46.2091967 21.25537109 50.11352539 C23.89537109 50.11352539 26.53537109 50.11352539 29.25537109 50.11352539 C29.59568359 49.03071289 29.59568359 49.03071289 29.94287109 47.92602539 C31.50368122 44.58143226 33.5584998 42.5974858 36.25537109 40.11352539 C35.76037109 45.06352539 35.76037109 45.06352539 35.25537109 50.11352539 C39.54537109 50.11352539 43.83537109 50.11352539 48.25537109 50.11352539 C48.49771484 48.98817383 48.74005859 47.86282227 48.98974609 46.70336914 C51.15297006 36.75993824 53.53610353 26.92024566 56.25537109 17.11352539 C44.18496946 16.08256319 44.18496946 16.08256319 33.66162109 20.40649414 C32.26354614 22.93515521 31.2642467 25.41502801 30.25537109 28.11352539 C29.59537109 28.11352539 28.93537109 28.11352539 28.25537109 28.11352539 C27.76037109 22.17352539 27.76037109 22.17352539 27.25537109 16.11352539 C20.98537109 16.44352539 14.71537109 16.77352539 8.25537109 17.11352539 C5.62103337 28.10247702 3.01008179 39.09428314 0.50537109 50.11352539 C0.29501221 51.03794434 0.08465332 51.96236328 -0.13208008 52.91479492 C-1.05102013 56.97316492 -1.9399419 61.03068391 -2.74462891 65.11352539 C-6.69834189 64.54870925 -9.46137985 63.39355946 -12.74462891 61.11352539 C-14.00420468 58.59437384 -13.89903575 56.81273825 -13.9375 53.99291992 C-13.95356293 52.92486115 -13.96962585 51.85680237 -13.98617554 50.75637817 C-14.03052931 45.87461927 -14.0716781 40.99299706 -14.09472656 36.11108398 C-14.11130569 33.53286729 -14.13862093 30.95469692 -14.17675781 28.37670898 C-14.2313849 24.66634187 -14.25337867 20.95705239 -14.26806641 17.24633789 C-14.29073578 16.09207306 -14.31340515 14.93780823 -14.33676147 13.74856567 C-14.31555045 5.75275837 -14.31555045 5.75275837 -11.33691406 2.41772461 C-7.12627667 0.29931955 -4.79688596 -0.00847506 0 0 Z " fill="#F96708" transform="translate(26.74462890625,23.886474609375)"/>
<path d="M0 0 C1.03919334 -0.00021904 1.03919334 -0.00021904 2.09938049 -0.0004425 C4.3935965 0.00025521 6.68773173 0.00804097 8.98193359 0.01586914 C10.57091223 0.01773382 12.15989144 0.01915749 13.74887085 0.02015686 C17.93446434 0.02397808 22.12002323 0.033805 26.30560303 0.04486084 C30.57531262 0.05508345 34.8450278 0.0596563 39.11474609 0.06469727 C47.49497032 0.07542761 55.87516641 0.09249931 64.25537109 0.11352539 C61.96554276 11.09213439 59.64638901 22.05915658 57.13037109 32.98852539 C56.87900391 34.10098633 56.62763672 35.21344727 56.36865234 36.35961914 C56.12244141 37.43083008 55.87623047 38.50204102 55.62255859 39.60571289 C55.40712402 40.54785645 55.19168945 41.49 54.96972656 42.46069336 C54.25442625 45.11703417 53.32888172 47.58306654 52.25537109 50.11352539 C51.26537109 50.11352539 50.27537109 50.11352539 49.25537109 50.11352539 C49.73808442 42.46013218 51.29377313 35.37108223 53.31787109 27.98852539 C53.74036133 26.41071289 53.74036133 26.41071289 54.17138672 24.80102539 C54.85912699 22.23657015 55.55387834 19.67424608 56.25537109 17.11352539 C44.18496946 16.08256319 44.18496946 16.08256319 33.66162109 20.40649414 C32.26354614 22.93515521 31.2642467 25.41502801 30.25537109 28.11352539 C29.59537109 28.11352539 28.93537109 28.11352539 28.25537109 28.11352539 C27.76037109 22.17352539 27.76037109 22.17352539 27.25537109 16.11352539 C20.98537109 16.44352539 14.71537109 16.77352539 8.25537109 17.11352539 C5.62103337 28.10247702 3.01008179 39.09428314 0.50537109 50.11352539 C0.29501221 51.03794434 0.08465332 51.96236328 -0.13208008 52.91479492 C-1.05102013 56.97316492 -1.9399419 61.03068391 -2.74462891 65.11352539 C-6.69834189 64.54870925 -9.46137985 63.39355946 -12.74462891 61.11352539 C-14.00420468 58.59437384 -13.89903575 56.81273825 -13.9375 53.99291992 C-13.95356293 52.92486115 -13.96962585 51.85680237 -13.98617554 50.75637817 C-14.03052931 45.87461927 -14.0716781 40.99299706 -14.09472656 36.11108398 C-14.11130569 33.53286729 -14.13862093 30.95469692 -14.17675781 28.37670898 C-14.2313849 24.66634187 -14.25337867 20.95705239 -14.26806641 17.24633789 C-14.29073578 16.09207306 -14.31340515 14.93780823 -14.33676147 13.74856567 C-14.31555045 5.75275837 -14.31555045 5.75275837 -11.33691406 2.41772461 C-7.12627667 0.29931955 -4.79688596 -0.00847506 0 0 Z " fill="#070607" transform="translate(26.74462890625,23.886474609375)"/>
<path d="M0 0 C0.33 0 0.66 0 1 0 C1 6.93 1 13.86 1 21 C-41.24 21 -83.48 21 -127 21 C-127 14.4 -127 7.8 -127 1 C-124.69 2.98 -122.38 4.96 -120 7 C-117.44229411 7.86144019 -117.44229411 7.86144019 -114.90194702 7.74171448 C-113.47215263 7.76058968 -113.47215263 7.76058968 -112.01347351 7.77984619 C-110.98986221 7.76298767 -109.96625092 7.74612915 -108.91162109 7.72875977 C-107.8164769 7.7344548 -106.7213327 7.74014984 -105.59300232 7.74601746 C-101.98581779 7.75710002 -98.38045993 7.72509438 -94.7734375 7.69140625 C-92.26193454 7.68782836 -89.75042751 7.68647189 -87.23892212 7.6872406 C-81.98165857 7.6825533 -76.7248623 7.65847258 -71.46777344 7.61743164 C-65.39697972 7.57021228 -59.32675612 7.55443936 -53.25579202 7.5566383 C-47.40324062 7.55847154 -41.55087999 7.54280974 -35.69838333 7.51826286 C-33.21287782 7.50871532 -30.72735559 7.50280355 -28.24183273 7.50058174 C-24.77079501 7.49408041 -21.3004737 7.46782728 -17.82958984 7.43579102 C-16.2881002 7.43783035 -16.2881002 7.43783035 -14.71546936 7.43991089 C-7.85610407 7.37412443 -7.85610407 7.37412443 -2 4 C-0.67206394 1.93299345 -0.67206394 1.93299345 0 0 Z " fill="#FEFEFE" transform="translate(127,107)"/>
<path d="M0 0 C42.24 0 84.48 0 128 0 C128 6.27 128 12.54 128 19 C125.69 17.02 123.38 15.04 121 13 C118.40926286 12.13035341 118.40926286 12.13035341 115.82601929 12.23809814 C114.37098244 12.21271973 114.37098244 12.21271973 112.8865509 12.18682861 C111.84423813 12.198974 110.80192535 12.21111938 109.72802734 12.22363281 C108.05605034 12.20786194 108.05605034 12.20786194 106.35029602 12.19177246 C102.67826742 12.16543621 99.00798267 12.18282085 95.3359375 12.203125 C92.7795885 12.1990822 90.22324175 12.19325822 87.66690063 12.18572998 C82.31544858 12.17689248 76.96461827 12.1891425 71.61328125 12.21777344 C65.43315255 12.25045749 59.2542106 12.23982116 53.07411039 12.206815 C47.11688914 12.17627765 41.16003567 12.17954439 35.20274734 12.19710541 C32.6725714 12.20110893 30.14236516 12.19619247 27.61222458 12.18222809 C24.0783921 12.16700114 20.54684559 12.19019652 17.01318359 12.22363281 C15.96682236 12.21148743 14.92046112 12.19934204 13.84239197 12.18682861 C8.68986969 12.1501889 8.68986969 12.1501889 4.24672318 14.38741302 C2.69552254 16.19455038 2.69552254 16.19455038 1 19 C0.67 19 0.34 19 0 19 C0 12.73 0 6.46 0 0 Z " fill="#FEFEFE" transform="translate(0,0)"/>
<path d="M0 0 C4.62 0 9.24 0 14 0 C13.28418236 7.32127408 11.63081979 14.34955447 9.9375 21.5 C9.65583984 22.70398438 9.37417969 23.90796875 9.08398438 25.1484375 C8.39298645 28.09981846 7.69699449 31.05002942 7 34 C2.38 34 -2.24 34 -7 34 C-6.42732401 26.18550993 -4.9199241 18.94592824 -2.9375 11.375 C-2.65583984 10.27542969 -2.37417969 9.17585938 -2.08398438 8.04296875 C-1.39582242 5.36030351 -0.69882735 2.67990672 0 0 Z " fill="#FAFAF7" transform="translate(87,40)"/>
</svg>
