<?xml version="1.0" encoding="UTF-8"?>
<svg version="1.1" xmlns="http://www.w3.org/2000/svg" width="175" height="175">
<path d="M0 0 C3.96 0 7.92 0 12 0 C12 3.96 12 7.92 12 12 C14.31 12 16.62 12 19 12 C19.31921669 13.13438507 19.31921669 13.13438507 19.6448822 14.29168701 C21.95572199 22.50319229 24.26726694 30.71449882 26.57922363 38.9256897 C27.48277188 42.13477525 28.38616207 45.34390524 29.28942871 48.55307007 C34.00978266 65.32298153 38.73498671 82.09143719 43.50038338 98.84861374 C44.10533605 100.97596649 44.70998999 103.10340393 45.31455994 105.23086548 C47.59156786 113.24332233 47.59156786 113.24332233 49.87472534 121.25402832 C50.9134535 124.89399656 51.94917831 128.53480741 52.984375 132.17578125 C53.2927681 133.25259659 53.60116119 134.32941193 53.91889954 135.43885803 C54.19541855 136.41334396 54.47193756 137.3878299 54.75683594 138.3918457 C54.99851501 139.23914749 55.24019409 140.08644928 55.48919678 140.95942688 C56 143 56 143 56 145 C56.81984375 144.65066406 57.6396875 144.30132812 58.484375 143.94140625 C59.56203125 143.48636719 60.6396875 143.03132812 61.75 142.5625 C62.81734375 142.11003906 63.8846875 141.65757812 64.984375 141.19140625 C67.3413841 140.26020447 69.52992835 139.5215928 72 139 C65.14033331 147.78245204 57.01986262 153.90786192 46.125 156.75 C39.27270902 157.29818328 33.01773602 157.32655769 26.3125 155.6875 C22.12624169 154.813117 20.11923708 154.99671759 16.5 157.3125 C15.8915625 157.78300781 15.283125 158.25351563 14.65625 158.73828125 C9.49635447 162.66905072 1.1780885 161.81646823 -5 161 C-10.23356658 159.45820516 -15.06413349 157.30089116 -20 155 C-37.30045506 147.23576137 -50.30782409 144.86041644 -69 150 C-63.05800727 143.31525818 -55.16031338 139.50695943 -46.22265625 138.62890625 C-31.96852792 138.20578767 -20.44758577 142.82476123 -7.6418457 148.53759766 C-0.64992298 151.64377892 5.57054862 154.17520786 13.2890625 154.06640625 C14.6186499 154.05202515 14.6186499 154.05202515 15.97509766 154.03735352 C16.64331543 154.02502686 17.3115332 154.0127002 18 154 C-1.3458447 145.76324702 -1.3458447 145.76324702 -21 138.3125 C-21.65540771 138.08159668 -22.31081543 137.85069336 -22.98608398 137.61279297 C-35.46593367 133.34552182 -47.99981286 133.53739196 -60 139 C-60.99 139.33 -61.98 139.66 -63 140 C-61.54517961 136.42552195 -59.76595596 134.76320215 -56.625 132.5625 C-55.85414062 132.00691406 -55.08328125 131.45132813 -54.2890625 130.87890625 C-51 129 -51 129 -48.27984619 128.40611267 C-44.05902559 127.29915086 -40.33007552 126.14130844 -37.91891098 122.25953865 C-35.41100903 116.60105161 -34.05412475 110.55051565 -32.5703125 104.5625 C-32.04570304 102.60095764 -31.51664014 100.64060149 -30.98336792 98.68139648 C-29.59059723 93.51845411 -28.25743786 88.34192509 -26.93670654 83.16015625 C-25.60157801 77.96220041 -24.21334648 72.77853727 -22.828125 67.59375 C-21.02148966 60.81760218 -19.23382325 54.03727073 -17.47938347 47.24742126 C-15.31347238 38.87706775 -13.06767557 30.53351213 -10.71044922 22.21484375 C-10.45439974 21.30473038 -10.19835026 20.394617 -9.9345417 19.45692444 C-9.69614508 18.62414474 -9.45774845 17.79136505 -9.21212769 16.93334961 C-8.89670926 15.82738686 -8.89670926 15.82738686 -8.57491875 14.69908142 C-8 13 -8 13 -7 12 C-4.66702567 11.95907063 -2.33294775 11.95758277 0 12 C0 8.04 0 4.08 0 0 Z M-4 22 C-4.66 25.3 -5.32 28.6 -6 32 C-4.02 30.68 -2.04 29.36 0 28 C-0.27617533 26.05925139 -0.27617533 26.05925139 -1 24 C-1.99 23.34 -2.98 22.68 -4 22 Z M14 22 C13.34 22.66 12.68 23.32 12 24 C12.01666329 26.50324332 12.01666329 26.50324332 13 29 C14.9568288 30.82337753 14.9568288 30.82337753 17 32 C16.41825155 26.6913151 16.41825155 26.6913151 14 22 Z M-2.84765625 37.75 C-3.94400391 38.86375 -3.94400391 38.86375 -5.0625 40 C-6.16271484 41.11375 -6.16271484 41.11375 -7.28515625 42.25 C-8.13400391 43.11625 -8.13400391 43.11625 -9 44 C-6.03839944 47.12613393 -3.90432869 49.04783565 0 51 C0 46.05 0 41.1 0 36 C-1.30313847 35.88539008 -1.30313847 35.88539008 -2.84765625 37.75 Z M12 37 C12 41.62 12 46.24 12 51 C14.64 49.02 17.28 47.04 20 45 C19.05125 43.865625 18.1025 42.73125 17.125 41.5625 C16.59132813 40.92441406 16.05765625 40.28632812 15.5078125 39.62890625 C14.0777243 37.89194996 14.0777243 37.89194996 12 37 Z M-12 51 C-13.19926633 54.95486643 -14.38240454 58.91437486 -15.5625 62.875 C-15.90474609 64.00292969 -16.24699219 65.13085938 -16.59960938 66.29296875 C-16.91865234 67.36933594 -17.23769531 68.44570312 -17.56640625 69.5546875 C-17.86490479 70.54968262 -18.16340332 71.54467773 -18.47094727 72.56982422 C-19.26465295 74.99339415 -19.26465295 74.99339415 -18 77 C-17.3709375 76.41992188 -16.741875 75.83984375 -16.09375 75.2421875 C-10.92287456 70.52298491 -5.70336945 66.06245589 0 62 C-1.4388102 58.612801 -3.22119499 56.6405896 -6 54.25 C-6.70125 53.63640625 -7.4025 53.0228125 -8.125 52.390625 C-9.8786657 50.80143078 -9.8786657 50.80143078 -12 51 Z M16.9375 55 C16.01839844 55.7425 15.09929687 56.485 14.15234375 57.25 C13.08693359 58.11625 13.08693359 58.11625 12 59 C12.56863516 62.48661891 13.64844119 63.95233835 16.30859375 66.234375 C16.97310547 66.80800781 17.63761719 67.38164063 18.32226562 67.97265625 C19.02029297 68.55917969 19.71832031 69.14570312 20.4375 69.75 C21.13166016 70.35199219 21.82582031 70.95398438 22.54101562 71.57421875 C25.84102872 74.81558218 25.84102872 74.81558218 30 76 C27.95838673 67.5537319 25.92608728 59.19304439 23 51 C20.82744421 51 18.50585742 53.72943196 16.9375 55 Z M-7.375 75.3125 C-7.96539062 75.81201172 -8.55578125 76.31152344 -9.1640625 76.82617188 C-11.88975704 79.14362613 -14.46445882 81.46445882 -17 84 C-11.39 84 -5.78 84 0 84 C0 79.38 0 74.76 0 70 C-2.48117502 70 -5.45884197 73.67509341 -7.375 75.3125 Z M12 71 C12 75.29 12 79.58 12 84 C17.28 84 22.56 84 28 84 C24.80845689 80.80845689 21.65695091 77.70261618 18.3125 74.6875 C17.54550781 73.99011719 16.77851562 73.29273437 15.98828125 72.57421875 C14.16133277 70.79308587 14.16133277 70.79308587 12 71 Z M-13 90 C-9.90727248 92.31954564 -7.69759103 93.71720383 -4.25 95.1875 C-3.45078125 95.53167969 -2.6515625 95.87585938 -1.828125 96.23046875 C-1.22484375 96.48441406 -0.6215625 96.73835938 0 97 C0 94.69 0 92.38 0 90 C-4.29 90 -8.58 90 -13 90 Z M12 90 C12 91.98 12 93.96 12 96 C16.23429756 94.68938409 20.07407404 93.05643741 24 91 C24 90.67 24 90.34 24 90 C20.04 90 16.08 90 12 90 Z M-24 93 C-25.03459685 96.60036137 -26.0502864 100.20578768 -27.0625 103.8125 C-27.35705078 104.83666016 -27.65160156 105.86082031 -27.95507812 106.91601562 C-28.22900391 107.89892578 -28.50292969 108.88183594 -28.78515625 109.89453125 C-29.04176025 110.80050049 -29.29836426 111.70646973 -29.56274414 112.63989258 C-30.22251708 115.13871117 -30.22251708 115.13871117 -29 118 C-19.76 113.38 -10.52 108.76 -1 104 C-4.91627825 101.06279131 -8.71039961 98.97875699 -13.0625 96.8125 C-13.78244141 96.44447266 -14.50238281 96.07644531 -15.24414062 95.69726562 C-15.93830078 95.34986328 -16.63246094 95.00246094 -17.34765625 94.64453125 C-17.97679932 94.32846924 -18.60594238 94.01240723 -19.25415039 93.68676758 C-21.15261582 92.81696648 -21.15261582 92.81696648 -24 93 Z M28.4296875 95.1875 C27.08583984 95.86425781 27.08583984 95.86425781 25.71484375 96.5546875 C24.77769531 97.03164062 23.84054688 97.50859375 22.875 98 C21.45767578 98.71542969 21.45767578 98.71542969 20.01171875 99.4453125 C17.67265408 100.62665829 15.33553279 101.81169103 13 103 C16.04265997 105.43349672 19.15164919 107.19203922 22.640625 108.91796875 C23.71054688 109.44970703 24.78046875 109.98144531 25.8828125 110.52929688 C27.54957031 111.35010742 27.54957031 111.35010742 29.25 112.1875 C30.37664062 112.74630859 31.50328125 113.30511719 32.6640625 113.88085938 C35.44093916 115.25753128 38.21961598 116.63042928 41 118 C42.42385188 115.15229624 41.50780712 113.77931396 40.56640625 110.7734375 C40.24736328 109.7421875 39.92832031 108.7109375 39.59960938 107.6484375 C39.08624023 106.02808594 39.08624023 106.02808594 38.5625 104.375 C38.22412109 103.28703125 37.88574219 102.1990625 37.53710938 101.078125 C36.69793211 98.38330224 35.85197086 95.69080008 35 93 C32.33821779 93 30.80500886 93.98480564 28.4296875 95.1875 Z M12 110 C12 113.3 12 116.6 12 120 C18.27 120 24.54 120 31 120 C28.23948155 117.92961117 26.32768156 116.5462683 23.328125 115.17578125 C22.66425781 114.86962891 22.00039062 114.56347656 21.31640625 114.24804688 C20.63449219 113.93931641 19.95257813 113.63058594 19.25 113.3125 C18.55261719 112.99216797 17.85523437 112.67183594 17.13671875 112.34179688 C15.42642792 111.55693739 13.71347493 110.77788352 12 110 Z M-5.03515625 111.96875 C-5.84404297 112.37480469 -6.65292969 112.78085938 -7.48632812 113.19921875 C-8.7615332 113.84310547 -8.7615332 113.84310547 -10.0625 114.5 C-10.91650391 114.92925781 -11.77050781 115.35851562 -12.65039062 115.80078125 C-14.76782742 116.86541428 -16.88431164 117.93189774 -19 119 C-19 119.33 -19 119.66 -19 120 C-12.73 120 -6.46 120 0 120 C0 116.7 0 113.4 0 110 C-1.83356087 110 -3.42857971 111.15984433 -5.03515625 111.96875 Z M-15 126 C-12.29177599 127.35411201 -9.74558434 128.55370771 -6.9375 129.625 C-5.93009766 130.01558594 -5.93009766 130.01558594 -4.90234375 130.4140625 C-2.85390898 131.14718082 -2.85390898 131.14718082 0 131 C0 129.35 0 127.7 0 126 C-4.95 126 -9.9 126 -15 126 Z M12 126 C12 129.63 12 133.26 12 137 C24.66830832 142.79069123 35.84169629 146.67779114 50 146 C49.19306037 142.85271313 48.37852172 139.70744322 47.5625 136.5625 C47.33240234 135.66466797 47.10230469 134.76683594 46.86523438 133.84179688 C46.64287109 132.98779297 46.42050781 132.13378906 46.19140625 131.25390625 C45.98717041 130.46314697 45.78293457 129.6723877 45.57250977 128.85766602 C45.15967047 127.0038412 45.15967047 127.0038412 44 126 C41.6243148 125.9116033 39.27791326 125.88469695 36.90234375 125.90234375 C36.19348526 125.9037587 35.48462677 125.90517365 34.75428772 125.90663147 C32.48198288 125.91224557 30.20977525 125.92480037 27.9375 125.9375 C26.40039204 125.94251319 24.86328255 125.94707641 23.32617188 125.95117188 C19.55074358 125.96221958 15.77538829 125.97949359 12 126 Z " fill="#000000" transform="translate(69,0)"/>
</svg>
